<?xml version="1.0" encoding="UTF-8" standalone="no"?>
<svg
   xmlns:dc="http://purl.org/dc/elements/1.1/"
   xmlns:cc="http://creativecommons.org/ns#"
   xmlns:rdf="http://www.w3.org/1999/02/22-rdf-syntax-ns#"
   xmlns:svg="http://www.w3.org/2000/svg"
   xmlns="http://www.w3.org/2000/svg"
   viewBox="0 0 549.12 276.93332"
   height="276.93332"
   width="549.12"
   xml:space="preserve"
   id="svg2"
   version="1.1"><metadata
     id="metadata8"><rdf:RDF><cc:Work
         rdf:about=""><dc:format>image/svg+xml</dc:format><dc:type
           rdf:resource="http://purl.org/dc/dcmitype/StillImage" /></cc:Work></rdf:RDF></metadata><defs
     id="defs6" /><g
     transform="matrix(1.3333333,0,0,-1.3333333,0,276.93333)"
     id="g10"><g
       transform="scale(0.1)"
       id="g12"><path
         id="path14"
         style="fill:#2b55ab;fill-opacity:1;fill-rule:nonzero;stroke:none"
         d="m 935.953,1011.15 v 852.84 L 557.078,1204.25 H 497.105 L 116.766,1863.99 V 1011.15 H 15.8242 V 2049.77 H 119.688 l 406.667,-710.94 406.676,710.94 H 1036.89 V 1011.15 H 935.953" /><path
         id="path16"
         style="fill:#2b55ab;fill-opacity:1;fill-rule:nonzero;stroke:none"
         d="m 1879,1296.41 c 0,25.35 -4.38,49.96 -13.16,73.88 -8.78,23.88 -21.22,44.84 -37.31,62.89 -16.09,18.04 -35.1,32.67 -57.04,43.89 -21.95,11.2 -45.61,16.82 -70.95,16.82 h -397.9 v -393.5 h 387.65 c 26.34,0 51.2,5.34 74.61,16.09 23.4,10.72 43.38,25.09 59.98,43.15 16.57,18.03 29.73,39 39.49,62.9 9.74,23.89 14.63,48.51 14.63,73.88 z m -576.36,664.13 v -383.27 h 356.93 c 25.36,0 49.01,5.36 70.95,16.09 21.95,10.73 40.97,24.87 57.06,42.43 16.09,17.55 28.52,37.78 37.3,60.71 8.77,22.9 13.16,47.04 13.16,72.41 0,26.33 -4.15,51.2 -12.43,74.6 -8.3,23.41 -20,43.63 -35.11,60.71 -15.13,17.05 -33.16,30.72 -54.13,40.96 -20.98,10.24 -43.65,15.36 -68.02,15.36 z m 678.76,-681.69 c 0,-39.01 -7.82,-74.85 -23.4,-107.51 -15.62,-32.69 -36.57,-60.96 -62.91,-84.85 -26.33,-23.91 -57.05,-42.42 -92.16,-55.59 -35.1,-13.17 -72.66,-19.75 -112.64,-19.75 H 1201.7 v 1038.62 h 498.84 c 36.06,0 68.75,-7.81 98.01,-23.4 29.26,-15.61 54.12,-35.84 74.6,-60.71 20.48,-24.87 36.32,-53.16 47.54,-84.84 11.2,-31.71 16.83,-63.64 16.83,-95.82 0,-52.66 -13.17,-100.71 -39.5,-144.09 -26.33,-43.41 -62.91,-75.84 -109.72,-97.28 59.48,-17.55 106.54,-50.24 141.17,-98.01 34.61,-47.8 51.93,-103.39 51.93,-166.77" /><path
         id="path18"
         style="fill:#2b55ab;fill-opacity:1;fill-rule:nonzero;stroke:none"
         d="m 3351.91,1859.6 v -848.45 h -100.94 v 1038.62 h 78.99 l 687.54,-864.54 v 863.08 h 100.94 V 1011.15 h -87.77 l -678.76,848.45" /><path
         id="path20"
         style="fill:#2b55ab;fill-opacity:1;fill-rule:nonzero;stroke:none"
         d="m 145.105,506.512 c 0.735,1.937 1.493,3.867 2.29,5.758 0.789,1.902 1.671,3.691 2.656,5.402 l 101.734,179.879 c 0.981,1.578 1.949,2.551 2.934,2.929 0.969,0.36 2.312,0.54 4.019,0.54 h 12.996 V 442.102 h -16.468 v 220.679 c 0,3.168 0.183,6.52 0.55,10.059 L 153.891,491.871 c -1.711,-3.172 -4.149,-4.75 -7.321,-4.75 h -2.925 c -3.055,0 -5.493,1.578 -7.321,4.75 L 31.6563,673.02 c 0.3671,-3.532 0.5468,-6.95 0.5468,-10.239 V 442.102 H 15.918 V 701.02 h 12.8086 c 1.707,0 3.0781,-0.18 4.1172,-0.54 1.0351,-0.378 2.039,-1.351 3.0195,-2.929 L 140.348,517.488 c 1.832,-3.418 3.418,-7.078 4.757,-10.976" /><path
         id="path22"
         style="fill:#2b55ab;fill-opacity:1;fill-rule:nonzero;stroke:none"
         d="m 442.461,451.789 c 7.074,0 13.57,0.77 19.488,2.289 5.918,1.524 11.406,3.66 16.469,6.41 5.059,2.742 9.789,6 14.18,9.793 4.394,3.778 8.718,7.86 12.992,12.258 v 47.391 c -17.324,-0.489 -32.235,-1.801 -44.738,-3.942 -12.508,-2.129 -22.817,-5.027 -30.926,-8.687 -8.113,-3.653 -14.09,-8.02 -17.934,-13.071 -3.844,-5.07 -5.762,-10.832 -5.762,-17.3 0,-6.102 1.004,-11.379 3.016,-15.828 2.016,-4.454 4.672,-8.114 7.961,-10.981 3.297,-2.871 7.141,-4.973 11.527,-6.312 4.395,-1.34 8.965,-2.02 13.727,-2.02 z m 73.191,-9.687 c -3.656,0 -5.918,1.707 -6.765,5.117 l -2.563,23.242 c -5.008,-4.879 -9.976,-9.27 -14.914,-13.18 -4.941,-3.902 -10.097,-7.191 -15.465,-9.883 -5.371,-2.687 -11.16,-4.726 -17.382,-6.117 -6.219,-1.41 -13.055,-2.109 -20.497,-2.109 -6.218,0 -12.253,0.918 -18.117,2.738 -5.851,1.84 -11.039,4.641 -15.551,8.418 -4.515,3.781 -8.144,8.633 -10.886,14.551 -2.746,5.922 -4.117,13.019 -4.117,21.32 0,7.68 2.199,14.821 6.585,21.403 4.391,6.597 11.254,12.328 20.586,17.207 9.332,4.871 21.348,8.781 36.051,11.711 14.696,2.929 32.36,4.628 52.973,5.121 v 19.031 c 0,16.84 -3.633,29.797 -10.887,38.887 -7.262,9.082 -18.023,13.632 -32.297,13.632 -8.785,0 -16.258,-1.222 -22.418,-3.66 -6.16,-2.441 -11.375,-5.133 -15.64,-8.051 -4.274,-2.929 -7.75,-5.609 -10.43,-8.058 -2.688,-2.442 -4.941,-3.66 -6.773,-3.66 -2.442,0 -4.274,1.109 -5.489,3.297 l -3.109,5.312 c 9.512,9.52 19.516,16.707 30.008,21.59 10.488,4.879 22.383,7.32 35.679,7.32 9.758,0 18.301,-1.562 25.621,-4.672 7.317,-3.109 13.387,-7.558 18.208,-13.359 4.82,-5.789 8.445,-12.809 10.886,-21.039 2.438,-8.231 3.656,-17.41 3.656,-27.539 v -118.57 h -6.953" /><path
         id="path24"
         style="fill:#2b55ab;fill-opacity:1;fill-rule:nonzero;stroke:none"
         d="m 637.152,442.102 v 182.07 h 9.153 c 2.07,0 3.566,-0.434 4.48,-1.281 0.914,-0.86 1.434,-2.321 1.559,-4.403 l 1.461,-38.418 c 5.859,14.762 13.66,26.309 23.422,34.668 9.761,8.364 21.777,12.543 36.05,12.543 5.489,0 10.551,-0.582 15.184,-1.742 4.641,-1.16 9.027,-2.84 13.18,-5.039 l -2.379,-12.07 c -0.367,-1.95 -1.586,-2.93 -3.66,-2.93 -0.735,0 -1.77,0.25 -3.114,0.738 -1.34,0.492 -3.015,1.032 -5.031,1.653 -2.012,0.597 -4.484,1.148 -7.406,1.64 -2.934,0.489 -6.285,0.731 -10.071,0.731 -13.785,0 -25.097,-4.274 -33.941,-12.813 -8.848,-8.539 -16.012,-20.859 -21.504,-36.961 V 442.102 h -17.383" /><path
         id="path26"
         style="fill:#2b55ab;fill-opacity:1;fill-rule:nonzero;stroke:none"
         d="m 864.605,624.172 v -182.07 h -17.386 v 182.07 z m 7.684,62.758 c 0,-2.2 -0.457,-4.239 -1.375,-6.121 -0.914,-1.899 -2.101,-3.579 -3.566,-5.039 -1.465,-1.469 -3.172,-2.629 -5.125,-3.481 -1.953,-0.848 -4.024,-1.277 -6.223,-1.277 -2.191,0 -4.27,0.429 -6.219,1.277 -1.953,0.852 -3.66,2.012 -5.125,3.481 -1.465,1.46 -2.625,3.14 -3.472,5.039 -0.856,1.882 -1.286,3.921 -1.286,6.121 0,2.199 0.43,4.308 1.286,6.32 0.847,2.012 2.007,3.75 3.472,5.211 1.465,1.469 3.172,2.621 5.125,3.48 1.949,0.848 4.028,1.278 6.219,1.278 2.199,0 4.27,-0.43 6.223,-1.278 1.953,-0.859 3.66,-2.011 5.125,-3.48 1.465,-1.461 2.652,-3.199 3.566,-5.211 0.918,-2.012 1.375,-4.121 1.375,-6.32" /><path
         id="path28"
         style="fill:#2b55ab;fill-opacity:1;fill-rule:nonzero;stroke:none"
         d="m 988.66,442.102 v 182.07 h 9.52 c 3.17,0 5,-1.531 5.49,-4.57 l 1.64,-27.454 c 8.3,10.481 17.97,18.934 29.01,25.34 11.04,6.403 23.33,9.614 36.87,9.614 10,0 18.81,-1.602 26.44,-4.762 7.62,-3.168 13.94,-7.75 18.94,-13.731 5,-5.98 8.78,-13.168 11.35,-21.589 2.56,-8.418 3.84,-17.93 3.84,-28.551 V 442.102 h -17.38 v 116.367 c 0,17.082 -3.91,30.472 -11.72,40.172 -7.81,9.699 -19.76,14.55 -35.86,14.55 -11.96,0 -23.06,-3.089 -33.3,-9.242 -10.25,-6.16 -19.4,-14.609 -27.46,-25.347 v -136.5 h -17.38" /><path
         id="path30"
         style="fill:#2b55ab;fill-opacity:1;fill-rule:nonzero;stroke:none"
         d="m 1315.2,614.109 c -9.39,0 -17.79,-1.468 -25.22,-4.398 -7.43,-2.93 -13.86,-7.133 -19.28,-12.621 -5.42,-5.488 -9.8,-12.078 -13.16,-19.77 -3.35,-7.679 -5.57,-16.281 -6.66,-25.8 h 119.86 c 0,9.769 -1.35,18.519 -4.03,26.261 -2.68,7.739 -6.45,14.309 -11.32,19.668 -4.87,5.371 -10.72,9.492 -17.54,12.352 -6.82,2.871 -14.38,4.308 -22.65,4.308 z m -0.28,12.993 c 10.25,0 19.73,-1.774 28.46,-5.313 8.72,-3.539 16.28,-8.687 22.69,-15.461 6.41,-6.769 11.41,-15.098 15,-24.976 3.6,-9.883 5.4,-21.231 5.4,-34.043 0,-2.68 -0.4,-4.508 -1.19,-5.489 -0.79,-0.968 -2.04,-1.461 -3.74,-1.461 h -131.39 v -3.48 c 0,-13.66 1.58,-25.68 4.75,-36.039 3.18,-10.371 7.69,-19.07 13.55,-26.078 5.85,-7.024 12.93,-12.293 21.22,-15.832 8.3,-3.539 17.57,-5.309 27.82,-5.309 9.15,0 17.08,1.02 23.78,3.027 6.71,2.012 12.36,4.274 16.93,6.774 4.57,2.5 8.2,4.75 10.89,6.758 2.68,2.011 4.63,3.019 5.86,3.019 1.58,0 2.8,-0.609 3.65,-1.828 l 4.76,-5.859 c -2.93,-3.653 -6.8,-7.071 -11.62,-10.242 -4.82,-3.168 -10.19,-5.891 -16.1,-8.141 -5.92,-2.258 -12.26,-4.059 -19.03,-5.391 -6.77,-1.347 -13.57,-2.027 -20.4,-2.027 -12.45,0 -23.79,2.168 -34.04,6.508 -10.25,4.32 -19.04,10.633 -26.38,18.929 -7.34,8.293 -13.01,18.454 -17.02,30.473 -4,12.008 -6.01,25.77 -6.01,41.258 0,13.062 1.86,25.101 5.58,36.141 3.73,11.039 9.09,20.562 16.11,28.55 7.01,7.989 15.61,14.239 25.8,18.758 10.18,4.512 21.74,6.774 34.67,6.774" /><path
         id="path32"
         style="fill:#2b55ab;fill-opacity:1;fill-rule:nonzero;stroke:none"
         d="M 1650.7,566.16 V 457.109 h 64.96 c 22.81,0 40.01,4.903 51.6,14.723 11.59,9.816 17.39,23.637 17.39,41.449 0,8.168 -1.56,15.528 -4.67,22.047 -3.11,6.524 -7.59,12.082 -13.45,16.652 -5.86,4.579 -13.05,8.079 -21.59,10.532 -8.54,2.429 -18.24,3.648 -29.1,3.648 z m 0,13.731 h 56.18 c 11.95,0 22.17,1.519 30.65,4.57 8.48,3.051 15.43,7.07 20.86,12.078 5.42,5 9.42,10.672 11.99,17.012 2.55,6.347 3.84,12.871 3.84,19.578 0,17.453 -5.52,30.66 -16.56,39.621 -11.04,8.969 -28.09,13.449 -51.15,13.449 H 1650.7 Z M 1632.04,442.102 V 701.02 h 74.47 c 14.76,0 27.54,-1.461 38.34,-4.391 10.79,-2.918 19.73,-7.231 26.81,-12.899 7.07,-5.679 12.35,-12.601 15.83,-20.761 3.47,-8.18 5.21,-17.457 5.21,-27.828 0,-6.821 -1.19,-13.411 -3.57,-19.75 -2.38,-6.352 -5.83,-12.211 -10.34,-17.571 -4.51,-5.371 -10.04,-10.039 -16.56,-14 -6.53,-3.968 -14,-6.988 -22.42,-9.058 20.38,-3.043 36.05,-9.821 47.03,-20.313 10.98,-10.488 16.47,-24.34 16.47,-41.527 0,-10.992 -1.95,-20.871 -5.85,-29.652 -3.91,-8.782 -9.58,-16.231 -17.02,-22.329 -7.44,-6.101 -16.59,-10.769 -27.45,-13.992 -10.86,-3.238 -23.18,-4.847 -36.96,-4.847 h -83.99" /><path
         id="path34"
         style="fill:#2b55ab;fill-opacity:1;fill-rule:nonzero;stroke:none"
         d="m 1940,624.172 v -182.07 h -17.39 v 182.07 z m 7.69,62.758 c 0,-2.2 -0.46,-4.239 -1.38,-6.121 -0.91,-1.899 -2.1,-3.579 -3.57,-5.039 -1.46,-1.469 -3.17,-2.629 -5.12,-3.481 -1.96,-0.848 -4.03,-1.277 -6.22,-1.277 -2.2,0 -4.28,0.429 -6.22,1.277 -1.96,0.852 -3.66,2.012 -5.13,3.481 -1.46,1.46 -2.62,3.14 -3.47,5.039 -0.86,1.882 -1.29,3.921 -1.29,6.121 0,2.199 0.43,4.308 1.29,6.32 0.85,2.012 2.01,3.75 3.47,5.211 1.47,1.469 3.17,2.621 5.13,3.48 1.94,0.848 4.02,1.278 6.22,1.278 2.19,0 4.26,-0.43 6.22,-1.278 1.95,-0.859 3.66,-2.011 5.12,-3.48 1.47,-1.461 2.66,-3.199 3.57,-5.211 0.92,-2.012 1.38,-4.121 1.38,-6.32" /><path
         id="path36"
         style="fill:#2b55ab;fill-opacity:1;fill-rule:nonzero;stroke:none"
         d="m 2133.41,453.441 c 10.86,0 20.34,1.86 28.46,5.579 8.11,3.718 14.88,9.062 20.31,16.019 5.43,6.949 9.48,15.34 12.17,25.152 2.68,9.829 4.02,20.829 4.02,33.028 0,12.082 -1.34,23.062 -4.02,32.941 -2.69,9.879 -6.74,18.328 -12.17,25.34 -5.43,7.02 -12.2,12.41 -20.31,16.199 -8.12,3.781 -17.6,5.68 -28.46,5.68 -10.86,0 -20.34,-1.899 -28.46,-5.68 -8.1,-3.789 -14.88,-9.179 -20.31,-16.199 -5.43,-7.012 -9.51,-15.461 -12.26,-25.34 -2.74,-9.879 -4.11,-20.859 -4.11,-32.941 0,-12.199 1.37,-23.199 4.11,-33.028 2.75,-9.812 6.83,-18.203 12.26,-25.152 5.43,-6.957 12.21,-12.301 20.31,-16.019 8.12,-3.719 17.6,-5.579 28.46,-5.579 z m 0,173.661 c 13.05,0 24.73,-2.231 35.04,-6.68 10.31,-4.461 19,-10.774 26.08,-18.942 7.07,-8.171 12.47,-18.031 16.19,-29.55 3.72,-11.532 5.58,-24.43 5.58,-38.711 0,-14.27 -1.86,-27.137 -5.58,-38.598 -3.72,-11.48 -9.12,-21.293 -16.19,-29.473 -7.08,-8.168 -15.77,-14.449 -26.08,-18.839 -10.31,-4.399 -21.99,-6.598 -35.04,-6.598 -13.06,0 -24.74,2.199 -35.04,6.598 -10.31,4.39 -19.03,10.671 -26.17,18.839 -7.14,8.18 -12.57,17.993 -16.29,29.473 -3.72,11.461 -5.58,24.328 -5.58,38.598 0,14.281 1.86,27.179 5.58,38.711 3.72,11.519 9.15,21.379 16.29,29.55 7.14,8.168 15.86,14.481 26.17,18.942 10.3,4.449 21.98,6.68 35.04,6.68" /><path
         id="path38"
         style="fill:#2b55ab;fill-opacity:1;fill-rule:nonzero;stroke:none"
         d="m 2384,453.809 c 12.09,0 23.03,3.113 32.81,9.332 9.77,6.218 18.51,14.879 26.21,25.988 v 96.062 c -7.09,10.368 -14.89,17.688 -23.37,21.969 -8.5,4.262 -18.12,6.391 -28.87,6.391 -10.75,0 -20.15,-1.949 -28.22,-5.852 -8.07,-3.898 -14.82,-9.418 -20.26,-16.558 -5.43,-7.141 -9.53,-15.672 -12.27,-25.621 -2.75,-9.95 -4.12,-20.891 -4.12,-32.848 0,-27.082 5,-46.992 15.02,-59.742 10.02,-12.75 24.37,-19.121 43.07,-19.121 z m 66.82,-11.707 c -3.02,0 -4.77,1.578 -5.24,4.75 l -1.84,28.73 c -8.07,-10.973 -17.5,-19.703 -28.31,-26.16 -10.81,-6.473 -22.93,-9.711 -36.37,-9.711 -22.35,0 -39.79,7.758 -52.31,23.25 -12.52,15.48 -18.78,38.73 -18.78,69.711 0,13.297 1.74,25.719 5.22,37.238 3.48,11.531 8.62,21.531 15.39,30.012 6.78,8.488 15.09,15.156 24.93,20.039 9.83,4.879 21.16,7.32 33.99,7.32 12.33,0 23.02,-2.293 32.06,-6.859 9.04,-4.57 16.86,-11.25 23.46,-20.043 v 107.973 h 17.38 v -266.25 h -9.58" /><path
         id="path40"
         style="fill:#2b55ab;fill-opacity:1;fill-rule:nonzero;stroke:none"
         d="m 2603.67,624.172 v -182.07 h -17.38 v 182.07 z m 7.69,62.758 c 0,-2.2 -0.46,-4.239 -1.37,-6.121 -0.92,-1.899 -2.11,-3.579 -3.57,-5.039 -1.47,-1.469 -3.18,-2.629 -5.12,-3.481 -1.95,-0.848 -4.03,-1.277 -6.22,-1.277 -2.2,0 -4.28,0.429 -6.22,1.277 -1.96,0.852 -3.66,2.012 -5.13,3.481 -1.46,1.46 -2.63,3.14 -3.48,5.039 -0.86,1.882 -1.28,3.921 -1.28,6.121 0,2.199 0.42,4.308 1.28,6.32 0.85,2.012 2.02,3.75 3.48,5.211 1.47,1.469 3.17,2.621 5.13,3.48 1.94,0.848 4.02,1.278 6.22,1.278 2.19,0 4.27,-0.43 6.22,-1.278 1.94,-0.859 3.65,-2.011 5.12,-3.48 1.46,-1.461 2.65,-3.199 3.57,-5.211 0.91,-2.012 1.37,-4.121 1.37,-6.32" /><path
         id="path42"
         style="fill:#2b55ab;fill-opacity:1;fill-rule:nonzero;stroke:none"
         d="m 2794.89,442.102 h -15.37 l -76.85,182.07 h 13.73 c 1.71,0 3.07,-0.461 4.11,-1.371 1.03,-0.922 1.8,-1.922 2.29,-3.031 l 60.02,-143.641 c 1.21,-2.801 2.13,-5.488 2.75,-8.047 0.6,-2.57 1.21,-5.121 1.82,-7.684 0.61,2.563 1.25,5.141 1.93,7.774 0.66,2.629 1.55,5.269 2.65,7.957 l 60.38,143.641 c 0.61,1.351 1.44,2.41 2.47,3.21 1.04,0.79 2.29,1.192 3.75,1.192 h 13.18 l -76.86,-182.07" /><path
         id="path44"
         style="fill:#2b55ab;fill-opacity:1;fill-rule:nonzero;stroke:none"
         d="m 3031.22,614.109 c -9.38,0 -17.79,-1.468 -25.21,-4.398 -7.44,-2.93 -13.86,-7.133 -19.28,-12.621 -5.42,-5.488 -9.81,-12.078 -13.16,-19.77 -3.35,-7.679 -5.57,-16.281 -6.67,-25.8 h 119.86 c 0,9.769 -1.34,18.519 -4.02,26.261 -2.68,7.739 -6.45,14.309 -11.32,19.668 -4.88,5.371 -10.73,9.492 -17.55,12.352 -6.82,2.871 -14.37,4.308 -22.65,4.308 z m -0.27,12.993 c 10.25,0 19.73,-1.774 28.45,-5.313 8.73,-3.539 16.29,-8.687 22.69,-15.461 6.41,-6.769 11.41,-15.098 15.01,-24.976 3.59,-9.883 5.4,-21.231 5.4,-34.043 0,-2.68 -0.4,-4.508 -1.19,-5.489 -0.79,-0.968 -2.04,-1.461 -3.75,-1.461 h -131.39 v -3.48 c 0,-13.66 1.58,-25.68 4.76,-36.039 3.17,-10.371 7.68,-19.07 13.54,-26.078 5.85,-7.024 12.93,-12.293 21.22,-15.832 8.3,-3.539 17.57,-5.309 27.83,-5.309 9.14,0 17.07,1.02 23.77,3.027 6.71,2.012 12.36,4.274 16.94,6.774 4.57,2.5 8.2,4.75 10.89,6.758 2.67,2.011 4.63,3.019 5.85,3.019 1.58,0 2.8,-0.609 3.66,-1.828 l 4.75,-5.859 c -2.92,-3.653 -6.79,-7.071 -11.62,-10.242 -4.81,-3.168 -10.18,-5.891 -16.1,-8.141 -5.92,-2.258 -12.26,-4.059 -19.02,-5.391 -6.78,-1.347 -13.58,-2.027 -20.41,-2.027 -12.44,0 -23.79,2.168 -34.04,6.508 -10.24,4.32 -19.04,10.633 -26.37,18.929 -7.35,8.293 -13.01,18.454 -17.03,30.473 -4,12.008 -6,25.77 -6,41.258 0,13.062 1.85,25.101 5.58,36.141 3.72,11.039 9.09,20.562 16.1,28.55 7.02,7.989 15.61,14.239 25.8,18.758 10.19,4.512 21.75,6.774 34.68,6.774" /><path
         id="path46"
         style="fill:#2b55ab;fill-opacity:1;fill-rule:nonzero;stroke:none"
         d="m 3208.99,442.102 v 182.07 h 9.14 c 2.08,0 3.58,-0.434 4.5,-1.281 0.91,-0.86 1.42,-2.321 1.55,-4.403 l 1.46,-38.418 c 5.85,14.762 13.67,26.309 23.42,34.668 9.76,8.364 21.78,12.543 36.05,12.543 5.5,0 10.55,-0.582 15.19,-1.742 4.63,-1.16 9.03,-2.84 13.18,-5.039 l -2.39,-12.07 c -0.36,-1.95 -1.58,-2.93 -3.65,-2.93 -0.73,0 -1.78,0.25 -3.11,0.738 -1.35,0.492 -3.02,1.032 -5.03,1.653 -2.01,0.597 -4.49,1.148 -7.42,1.64 -2.92,0.489 -6.28,0.731 -10.06,0.731 -13.79,0 -25.1,-4.274 -33.95,-12.813 -8.85,-8.539 -16,-20.859 -21.49,-36.961 V 442.102 h -17.39" /><path
         id="path48"
         style="fill:#2b55ab;fill-opacity:1;fill-rule:nonzero;stroke:none"
         d="m 3514.21,601.48 c -0.86,-1.71 -2.2,-2.57 -4.02,-2.57 -1.35,0 -3.09,0.762 -5.22,2.301 -2.14,1.519 -4.94,3.219 -8.42,5.117 -3.47,1.891 -7.75,3.602 -12.81,5.121 -5.06,1.531 -11.25,2.289 -18.57,2.289 -6.59,0 -12.6,-0.937 -18.03,-2.828 -5.43,-1.89 -10.06,-4.41 -13.91,-7.57 -3.84,-3.168 -6.82,-6.852 -8.96,-11.051 -2.13,-4.199 -3.21,-8.598 -3.21,-13.23 0,-5.707 1.47,-10.457 4.4,-14.227 2.93,-3.781 6.77,-7.004 11.53,-9.684 4.76,-2.668 10.15,-4.988 16.19,-6.929 6.04,-1.938 12.23,-3.899 18.58,-5.848 6.34,-1.949 12.53,-4.109 18.57,-6.492 6.04,-2.379 11.44,-5.34 16.19,-8.879 4.76,-3.539 8.61,-7.859 11.53,-12.988 2.93,-5.133 4.39,-11.352 4.39,-18.66 0,-7.93 -1.43,-15.313 -4.3,-22.153 -2.87,-6.828 -7.02,-12.738 -12.44,-17.738 -5.43,-5 -12.11,-8.973 -20.04,-11.902 -7.93,-2.93 -16.96,-4.387 -27.08,-4.387 -12.81,0 -23.85,2.047 -33.12,6.129 -9.27,4.078 -17.57,9.418 -24.88,16.008 l 4.21,6.23 c 0.6,0.961 1.27,1.699 2.01,2.18 0.73,0.492 1.76,0.742 3.1,0.742 1.59,0 3.54,-0.981 5.86,-2.922 2.32,-1.957 5.33,-4.07 9.05,-6.32 3.73,-2.258 8.36,-4.367 13.92,-6.309 5.55,-1.949 12.4,-2.93 20.59,-2.93 7.68,0 14.45,1.059 20.3,3.2 5.86,2.129 10.74,5.031 14.64,8.691 3.9,3.668 6.86,7.961 8.87,12.899 2.02,4.949 3.02,10.16 3.02,15.652 0,6.09 -1.45,11.16 -4.38,15.18 -2.93,4.027 -6.78,7.449 -11.54,10.25 -4.75,2.808 -10.15,5.179 -16.19,7.136 -6.03,1.953 -12.26,3.903 -18.66,5.864 -6.41,1.949 -12.63,4.078 -18.67,6.398 -6.04,2.32 -11.44,5.25 -16.19,8.781 -4.76,3.539 -8.61,7.84 -11.53,12.899 -2.93,5.058 -4.39,11.379 -4.39,18.941 0,6.461 1.4,12.688 4.21,18.668 2.8,5.981 6.8,11.223 11.98,15.731 5.19,4.511 11.5,8.121 18.95,10.8 7.43,2.68 15.79,4.032 25.06,4.032 11.1,0 20.95,-1.614 29.56,-4.832 8.6,-3.211 16.49,-8.129 23.69,-14.75 l -3.84,-6.04" /><path
         id="path50"
         style="fill:#2b55ab;fill-opacity:1;fill-rule:nonzero;stroke:none"
         d="m 3653.46,624.172 v -182.07 h -17.39 v 182.07 z m 7.68,62.758 c 0,-2.2 -0.46,-4.239 -1.36,-6.121 -0.92,-1.899 -2.11,-3.579 -3.58,-5.039 -1.46,-1.469 -3.17,-2.629 -5.12,-3.481 -1.95,-0.848 -4.03,-1.277 -6.22,-1.277 -2.19,0 -4.27,0.429 -6.22,1.277 -1.95,0.852 -3.66,2.012 -5.12,3.481 -1.47,1.46 -2.63,3.14 -3.48,5.039 -0.86,1.882 -1.28,3.921 -1.28,6.121 0,2.199 0.42,4.308 1.28,6.32 0.85,2.012 2.01,3.75 3.48,5.211 1.46,1.469 3.17,2.621 5.12,3.48 1.95,0.848 4.03,1.278 6.22,1.278 2.19,0 4.27,-0.43 6.22,-1.278 1.95,-0.859 3.66,-2.011 5.12,-3.48 1.47,-1.461 2.66,-3.199 3.58,-5.211 0.9,-2.012 1.36,-4.121 1.36,-6.32" /><path
         id="path52"
         style="fill:#2b55ab;fill-opacity:1;fill-rule:nonzero;stroke:none"
         d="m 3827.11,439.172 c -12.32,0 -21.9,3.418 -28.72,10.25 -6.84,6.828 -10.26,17.379 -10.26,31.648 V 605.5 h -26.16 c -1.34,0 -2.44,0.371 -3.29,1.102 -0.86,0.73 -1.29,1.769 -1.29,3.109 v 6.769 l 31.12,2.2 4.34,65.148 c 0.12,1.094 0.57,2.07 1.36,2.922 0.78,0.852 1.83,1.281 3.16,1.281 h 8.15 v -69.543 h 57.27 V 605.5 h -57.27 V 481.988 c 0,-5.008 0.64,-9.308 1.92,-12.898 1.28,-3.602 3.05,-6.559 5.31,-8.879 2.26,-2.313 4.91,-4.02 7.96,-5.121 3.05,-1.102 6.34,-1.649 9.89,-1.649 4.38,0 8.16,0.637 11.33,1.918 3.18,1.289 5.92,2.68 8.24,4.211 2.32,1.532 4.21,2.93 5.67,4.211 1.46,1.289 2.63,1.918 3.48,1.918 0.97,0 1.95,-0.609 2.93,-1.828 l 4.75,-7.68 c -4.64,-5.132 -10.52,-9.242 -17.65,-12.351 -7.14,-3.121 -14.56,-4.668 -22.24,-4.668" /><path
         id="path54"
         style="fill:#2b55ab;fill-opacity:1;fill-rule:nonzero;stroke:none"
         d="m 4007.35,383.539 c -0.73,-1.707 -1.68,-3.109 -2.84,-4.207 -1.16,-1.102 -2.83,-1.652 -5.03,-1.652 h -12.44 l 32.02,71.179 -77.04,175.313 h 14.46 c 1.83,0 3.27,-0.461 4.3,-1.371 1.04,-0.922 1.8,-1.922 2.29,-3.031 l 61.3,-141.629 c 0.73,-1.821 1.37,-3.692 1.92,-5.571 0.55,-1.898 1.06,-3.82 1.55,-5.769 0.62,1.949 1.25,3.871 1.93,5.769 0.67,1.879 1.37,3.75 2.11,5.571 l 60.56,141.629 c 0.61,1.351 1.47,2.41 2.56,3.21 1.1,0.79 2.31,1.192 3.66,1.192 h 13.36 L 4007.35,383.539" /><path
         id="path56"
         style="fill:#2b55ab;fill-opacity:1;fill-rule:nonzero;stroke:none"
         d="m 227.449,132.48 c 0,18.051 -2.504,34.282 -7.504,48.68 -5,14.391 -12.047,26.59 -21.132,36.59 -9.09,10 -20.04,17.66 -32.844,22.969 -12.809,5.301 -27.024,7.961 -42.641,7.961 -15.367,0 -29.4296,-2.66 -42.1757,-7.961 -12.75,-5.309 -23.7304,-12.969 -32.9375,-22.969 -9.2109,-10 -16.3515,-22.199 -21.4101,-36.59 -5.0625,-14.398 -7.5938,-30.629 -7.5938,-48.68 0,-18.179 2.5313,-34.4409 7.5938,-48.7612 C 31.8633,69.3789 39.0039,57.2109 48.2148,47.2109 57.4219,37.1992 68.4023,29.5781 81.1523,24.332 c 12.7461,-5.2422 26.8087,-7.8632 42.1757,-7.8632 15.617,0 29.832,2.621 42.641,7.8632 12.804,5.2461 23.754,12.8672 32.844,22.8789 9.085,10 16.132,22.168 21.132,36.5079 5,14.3203 7.504,30.5822 7.504,48.7612 z m 19.399,0 c 0,-20 -2.993,-38.148 -8.965,-54.4409 C 231.902,61.75 223.484,47.8516 212.629,36.3281 201.77,24.7891 188.777,15.8906 173.652,9.60938 158.523,3.32031 141.746,0.179688 123.328,0.179688 105.152,0.179688 88.5,3.32031 73.375,9.60938 58.2461,15.8906 45.2539,24.7891 34.3984,36.3281 23.5391,47.8516 15.0938,61.75 9.05859,78.0391 3.01953,94.332 0,112.48 0,132.48 c 0,19.879 3.01953,37.981 9.05859,54.258 6.03521,16.282 14.48051,30.192 25.33981,41.711 10.8555,11.539 23.8477,20.473 38.9766,26.821 15.125,6.339 31.777,9.511 49.953,9.511 18.418,0 35.195,-3.14 50.324,-9.422 15.125,-6.289 28.118,-15.23 38.977,-26.808 10.855,-11.59 19.273,-25.531 25.254,-41.813 5.972,-16.277 8.965,-34.379 8.965,-54.258" /><path
         id="path58"
         style="fill:#2b55ab;fill-opacity:1;fill-rule:nonzero;stroke:none"
         d="m 417.844,174.02 c -12.102,0 -23.035,-3.11 -32.809,-9.34 -9.777,-6.219 -18.512,-14.879 -26.207,-25.981 V 42.6289 c 6.965,-10.4805 14.664,-17.8398 23.098,-22.0469 8.426,-4.2109 18.14,-6.3125 29.137,-6.3125 10.75,0 20.16,1.9493 28.222,5.8516 8.063,3.9102 14.813,9.4297 20.25,16.5703 5.438,7.1367 9.528,15.668 12.281,25.6094 2.75,9.9375 4.122,20.8906 4.122,32.8476 0,27.0816 -5.004,46.9996 -15.024,59.7496 -10.019,12.743 -24.383,19.122 -43.07,19.122 z M 341.445,2.92969 V 269.18 h 17.383 l 0.18,-116.02 c 8.055,10.731 17.387,19.211 28,25.43 10.613,6.219 22.566,9.34 35.867,9.34 22.324,0 39.738,-7.719 52.242,-23.149 12.5,-15.441 18.754,-38.64 18.754,-69.6326 0,-13.2968 -1.738,-25.707 -5.223,-37.2265 -3.48,-11.543 -8.609,-21.543 -15.39,-30.0117 C 466.48,19.4219 458.176,12.7383 448.34,7.87109 438.508,2.98828 427.18,0.539063 414.352,0.539063 c -12.707,0 -23.637,2.472657 -32.805,7.421877 -9.16,4.93746 -17.035,12.23046 -23.633,21.85936 L 356.824,7.5 c -0.359,-3.05078 -1.988,-4.57031 -4.886,-4.57031 h -10.493" /><path
         id="path60"
         style="fill:#2b55ab;fill-opacity:1;fill-rule:nonzero;stroke:none"
         d="m 680.336,162.309 c -0.856,-1.707 -2.195,-2.571 -4.027,-2.571 -1.344,0 -3.082,0.762 -5.215,2.301 -2.133,1.52 -4.942,3.223 -8.418,5.121 -3.477,1.891 -7.742,3.602 -12.809,5.121 -5.062,1.528 -11.254,2.289 -18.574,2.289 -6.586,0 -12.598,-0.941 -18.023,-2.832 -5.426,-1.886 -10.063,-4.406 -13.907,-7.566 -3.84,-3.172 -6.836,-6.852 -8.968,-11.051 -2.133,-4.199 -3.2,-8.601 -3.2,-13.23 0,-5.711 1.461,-10.461 4.391,-14.231 2.93,-3.781 6.773,-7 11.527,-9.68 4.758,-2.671 10.157,-4.992 16.2,-6.929 6.035,-1.942 12.226,-3.903 18.57,-5.852 6.34,-1.949 12.531,-4.1092 18.57,-6.4881 6.043,-2.3789 11.438,-5.3398 16.199,-8.8828 4.754,-3.539 8.598,-7.8593 11.528,-12.9883 2.925,-5.1289 4.39,-11.3515 4.39,-18.6601 0,-7.9297 -1.437,-15.3086 -4.297,-22.1484 -2.871,-6.8321 -7.015,-12.7422 -12.449,-17.7422 -5.429,-5 -12.105,-8.96879 -20.031,-11.89847 C 643.855,1.46094 634.836,0 624.707,0 611.898,0 600.855,2.05078 591.586,6.12891 582.313,10.2109 574.02,15.5508 566.699,22.1406 l 4.207,6.2305 c 0.614,0.9609 1.285,1.6992 2.02,2.1797 0.726,0.4883 1.762,0.7383 3.109,0.7383 1.582,0 3.535,-0.9805 5.856,-2.918 2.312,-1.9609 5.332,-4.0703 9.054,-6.3203 3.723,-2.2617 8.356,-4.3711 13.91,-6.3125 5.551,-1.9492 12.411,-2.9297 20.583,-2.9297 7.687,0 14.46,1.0625 20.316,3.2031 5.851,2.1289 10.73,5.0274 14.637,8.6875 3.902,3.6719 6.859,7.961 8.871,12.9024 2.015,4.9492 3.023,10.1601 3.023,15.6484 0,6.0898 -1.465,11.1602 -4.394,15.1797 -2.926,4.0312 -6.77,7.4492 -11.528,10.25 -4.758,2.8086 -10.152,5.1797 -16.191,7.1406 -6.039,1.9492 -12.262,3.8985 -18.668,5.8594 -6.402,1.9492 -12.625,4.082 -18.66,6.4023 -6.043,2.316 -11.438,5.246 -16.199,8.777 -4.754,3.539 -8.598,7.84 -11.528,12.903 -2.926,5.058 -4.39,11.379 -4.39,18.937 0,6.461 1.402,12.692 4.211,18.672 2.8,5.981 6.796,11.219 11.98,15.731 5.187,4.507 11.5,8.117 18.941,10.796 7.442,2.68 15.797,4.032 25.071,4.032 11.097,0 20.949,-1.61 29.554,-4.828 8.598,-3.211 16.493,-8.133 23.696,-14.75 l -3.844,-6.043" /><path
         id="path62"
         style="fill:#2b55ab;fill-opacity:1;fill-rule:nonzero;stroke:none"
         d="m 846.938,174.941 c -9.383,0 -17.79,-1.472 -25.219,-4.402 -7.426,-2.93 -13.852,-7.129 -19.274,-12.617 -5.425,-5.492 -9.804,-12.082 -13.16,-19.774 -3.347,-7.679 -5.57,-16.277 -6.664,-25.796 H 902.48 c 0,9.769 -1.343,18.519 -4.023,26.257 -2.68,7.743 -6.453,14.313 -11.328,19.672 -4.867,5.367 -10.719,9.489 -17.539,12.348 -6.82,2.871 -14.375,4.312 -22.652,4.312 z m -0.274,12.989 c 10.25,0 19.731,-1.77 28.457,-5.309 8.723,-3.543 16.285,-8.691 22.692,-15.461 6.406,-6.769 11.406,-15.101 15.003,-24.98 3.602,-9.879 5.399,-21.231 5.399,-34.039 0,-2.68 -0.399,-4.512 -1.188,-5.493 -0.793,-0.968 -2.043,-1.457 -3.746,-1.457 h -131.39 v -3.4801 c 0,-13.6601 1.582,-25.6796 4.754,-36.039 3.175,-10.3711 7.687,-19.0703 13.546,-26.0821 5.856,-7.0195 12.93,-12.289 21.227,-15.8281 8.293,-3.5429 17.562,-5.3125 27.812,-5.3125 9.149,0 17.079,1.0196 23.79,3.0313 6.707,2.0078 12.351,4.2695 16.921,6.7695 4.575,2.5 8.204,4.75 10.887,6.7617 2.688,2.0078 4.637,3.0196 5.86,3.0196 1.582,0 2.804,-0.6094 3.66,-1.8321 l 4.754,-5.8594 C 912.18,22.6914 908.301,19.2695 903.484,16.1016 898.66,12.9297 893.297,10.2109 887.383,7.96094 881.465,5.69922 875.121,3.89844 868.352,2.57031 861.582,1.21875 854.781,0.539063 847.949,0.539063 c -12.445,0 -23.789,2.171877 -34.039,6.511717 -10.242,4.32032 -19.043,10.62892 -26.375,18.92972 -7.34,8.289 -13.015,18.4492 -17.015,30.4687 -4.012,12.0117 -6.012,25.7696 -6.012,41.2617 0,13.0591 1.855,25.0981 5.582,36.1411 3.719,11.039 9.086,20.558 16.101,28.546 7.012,7.993 15.61,14.243 25.801,18.762 10.188,4.512 21.742,6.77 34.672,6.77" /><path
         id="path64"
         style="fill:#2b55ab;fill-opacity:1;fill-rule:nonzero;stroke:none"
         d="M 1005.68,2.92969 V 185 h 9.15 c 2.07,0 3.57,-0.43 4.48,-1.281 0.91,-0.86 1.43,-2.321 1.56,-4.399 l 1.46,-38.422 c 5.86,14.762 13.66,26.313 23.42,34.672 9.76,8.36 21.78,12.539 36.05,12.539 5.49,0 10.55,-0.578 15.19,-1.738 4.64,-1.16 9.03,-2.84 13.18,-5.031 l -2.38,-12.078 c -0.37,-1.953 -1.59,-2.922 -3.66,-2.922 -0.74,0 -1.77,0.238 -3.11,0.73 -1.35,0.489 -3.02,1.032 -5.04,1.649 -2.01,0.601 -4.48,1.152 -7.41,1.64 -2.93,0.493 -6.28,0.731 -10.06,0.731 -13.79,0 -25.1,-4.27 -33.94,-12.809 -8.85,-8.543 -16.02,-20.859 -21.51,-36.961 V 2.92969 h -17.38" /><path
         id="path66"
         style="fill:#2b55ab;fill-opacity:1;fill-rule:nonzero;stroke:none"
         d="m 1258.75,2.92969 h -15.38 L 1166.52,185 h 13.72 c 1.71,0 3.08,-0.461 4.12,-1.371 1.04,-0.918 1.8,-1.918 2.29,-3.027 l 60.02,-143.6411 c 1.22,-2.8007 2.13,-5.4921 2.74,-8.0507 0.61,-2.5704 1.22,-5.1211 1.83,-7.6797 0.61,2.5586 1.25,5.1406 1.92,7.7695 0.67,2.6289 1.56,5.2695 2.66,7.9609 l 60.38,143.6411 c 0.61,1.347 1.43,2.41 2.47,3.207 1.04,0.793 2.29,1.191 3.75,1.191 h 13.18 L 1258.75,2.92969" /><path
         id="path68"
         style="fill:#2b55ab;fill-opacity:1;fill-rule:nonzero;stroke:none"
         d="m 1453.44,12.6211 c 7.08,0 13.57,0.7695 19.49,2.2891 5.92,1.5195 11.41,3.6601 16.47,6.4101 5.06,2.7383 9.79,6 14.18,9.7891 4.39,3.7812 8.72,7.8594 12.99,12.2617 v 47.3906 c -17.32,-0.4922 -32.23,-1.8008 -44.74,-3.9414 -12.5,-2.1289 -22.81,-5.0312 -30.92,-8.6914 -8.12,-3.6484 -14.09,-8.0195 -17.94,-13.0703 -3.84,-5.0703 -5.76,-10.8281 -5.76,-17.2969 0,-6.1015 1.01,-11.3828 3.02,-15.832 2.01,-4.4492 4.67,-8.1094 7.96,-10.9805 3.29,-2.8672 7.14,-4.9687 11.53,-6.3086 4.39,-1.3398 8.96,-2.0195 13.72,-2.0195 z m 73.2,-9.69141 c -3.66,0 -5.92,1.71094 -6.77,5.12109 l -2.57,23.23832 c -5,-4.8789 -9.97,-9.2696 -14.91,-13.1797 -4.94,-3.8985 -10.1,-7.1875 -15.46,-9.87893 C 1481.56,5.53906 1475.77,3.5 1469.55,2.10938 1463.33,0.699219 1456.49,0 1449.05,0 c -6.22,0 -12.26,0.921875 -18.12,2.73828 -5.85,1.84375 -11.04,4.64063 -15.55,8.42192 -4.52,3.7812 -8.14,8.6289 -10.89,14.5507 -2.74,5.918 -4.11,13.0196 -4.11,21.3204 0,7.6796 2.19,14.8203 6.58,21.3984 4.39,6.6016 11.26,12.332 20.59,17.2109 9.33,4.8711 21.35,8.7813 36.05,11.711 14.7,2.9294 32.36,4.6284 52.97,5.1174 V 121.5 c 0,16.84 -3.63,29.801 -10.89,38.891 -7.26,9.078 -18.02,13.629 -32.29,13.629 -8.79,0 -16.26,-1.219 -22.42,-3.661 -6.16,-2.437 -11.38,-5.129 -15.64,-8.05 -4.28,-2.93 -7.75,-5.61 -10.43,-8.059 -2.69,-2.441 -4.94,-3.66 -6.77,-3.66 -2.45,0 -4.28,1.109 -5.49,3.301 l -3.11,5.308 c 9.51,9.52 19.51,16.711 30.01,21.59 10.48,4.883 22.38,7.32 35.67,7.32 9.77,0 18.31,-1.558 25.62,-4.668 7.32,-3.113 13.39,-7.562 18.21,-13.351 4.82,-5.801 8.45,-12.82 10.89,-21.051 2.44,-8.23 3.66,-17.41 3.66,-27.539 V 2.92969 h -6.95" /><path
         id="path70"
         style="fill:#2b55ab;fill-opacity:1;fill-rule:nonzero;stroke:none"
         d="m 1678.7,0 c -12.33,0 -21.9,3.42188 -28.73,10.25 -6.84,6.832 -10.25,17.3789 -10.25,31.6484 V 166.34 h -26.17 c -1.34,0 -2.44,0.359 -3.29,1.09 -0.86,0.73 -1.28,1.769 -1.28,3.109 v 6.77 l 31.11,2.203 4.34,65.148 c 0.12,1.09 0.57,2.07 1.36,2.93 0.78,0.84 1.84,1.269 3.17,1.269 h 8.14 V 179.32 h 57.28 V 166.34 H 1657.1 V 42.8203 c 0,-5.0117 0.64,-9.3086 1.92,-12.8984 1.29,-3.6016 3.06,-6.5625 5.31,-8.8828 2.26,-2.3086 4.91,-4.0196 7.96,-5.1172 3.05,-1.1016 6.34,-1.6524 9.88,-1.6524 4.39,0 8.18,0.6407 11.35,1.9219 3.17,1.2891 5.91,2.6797 8.23,4.207 2.32,1.5313 4.21,2.9336 5.68,4.211 1.46,1.289 2.62,1.9219 3.47,1.9219 0.98,0 1.95,-0.6094 2.93,-1.8321 l 4.76,-7.6797 C 1713.95,11.8906 1708.07,7.78125 1700.93,4.67188 1693.79,1.55078 1686.38,0 1678.7,0" /><path
         id="path72"
         style="fill:#2b55ab;fill-opacity:1;fill-rule:nonzero;stroke:none"
         d="M 1822.71,185 V 2.92969 h -17.39 V 185 Z m 7.68,62.762 c 0,-2.203 -0.46,-4.242 -1.38,-6.121 -0.91,-1.903 -2.1,-3.582 -3.56,-5.039 -1.47,-1.473 -3.17,-2.633 -5.13,-3.481 -1.95,-0.851 -4.02,-1.281 -6.22,-1.281 -2.19,0 -4.27,0.43 -6.22,1.281 -1.95,0.848 -3.66,2.008 -5.12,3.481 -1.47,1.457 -2.63,3.136 -3.48,5.039 -0.85,1.879 -1.28,3.918 -1.28,6.121 0,2.199 0.43,4.308 1.28,6.316 0.85,2.012 2.01,3.75 3.48,5.211 1.46,1.473 3.17,2.621 5.12,3.481 1.95,0.851 4.03,1.281 6.22,1.281 2.2,0 4.27,-0.43 6.22,-1.281 1.96,-0.86 3.66,-2.008 5.13,-3.481 1.46,-1.461 2.65,-3.199 3.56,-5.211 0.92,-2.008 1.38,-4.117 1.38,-6.316" /><path
         id="path74"
         style="fill:#2b55ab;fill-opacity:1;fill-rule:nonzero;stroke:none"
         d="m 1997.08,14.2695 c 10.86,0 20.35,1.8594 28.46,5.5821 8.11,3.7187 14.88,9.0586 20.31,16.0195 5.43,6.9492 9.49,15.3398 12.17,25.1484 2.68,9.8321 4.03,20.8321 4.03,33.0313 0,12.0782 -1.35,23.0582 -4.03,32.9372 -2.68,9.883 -6.74,18.332 -12.17,25.344 -5.43,7.02 -12.2,12.406 -20.31,16.199 -8.11,3.778 -17.6,5.68 -28.46,5.68 -10.85,0 -20.34,-1.902 -28.45,-5.68 -8.11,-3.793 -14.88,-9.179 -20.31,-16.199 -5.43,-7.012 -9.52,-15.461 -12.26,-25.344 -2.74,-9.879 -4.12,-20.859 -4.12,-32.9372 0,-12.1992 1.38,-23.1992 4.12,-33.0313 2.74,-9.8086 6.83,-18.1992 12.26,-25.1484 5.43,-6.9609 12.2,-12.3008 20.31,-16.0195 8.11,-3.7227 17.6,-5.5821 28.45,-5.5821 z m 0,173.6605 c 13.06,0 24.74,-2.231 35.05,-6.68 10.31,-4.461 19,-10.77 26.07,-18.941 7.08,-8.168 12.47,-18.028 16.2,-29.547 3.72,-11.532 5.58,-24.434 5.58,-38.7112 0,-14.2695 -1.86,-27.1406 -5.58,-38.6016 -3.73,-11.4804 -9.12,-21.289 -16.2,-29.4687 -7.07,-8.1719 -15.76,-14.4492 -26.07,-18.83987 -10.31,-4.40235 -21.99,-6.601567 -35.05,-6.601567 -13.05,0 -24.73,2.199217 -35.03,6.601567 -10.32,4.39067 -19.04,10.66797 -26.17,18.83987 -7.14,8.1797 -12.57,17.9883 -16.29,29.4687 -3.72,11.461 -5.58,24.3321 -5.58,38.6016 0,14.2772 1.86,27.1792 5.58,38.7112 3.72,11.519 9.15,21.379 16.29,29.547 7.13,8.171 15.85,14.48 26.17,18.941 10.3,4.449 21.98,6.68 35.03,6.68" /><path
         id="path76"
         style="fill:#2b55ab;fill-opacity:1;fill-rule:nonzero;stroke:none"
         d="M 2166.35,2.92969 V 185 h 9.51 c 3.17,0 5,-1.531 5.49,-4.57 l 1.65,-27.45 c 8.29,10.481 17.96,18.93 29,25.34 11.04,6.399 23.33,9.61 36.87,9.61 10,0 18.82,-1.59 26.44,-4.758 7.62,-3.172 13.94,-7.75 18.94,-13.731 5,-5.98 8.79,-13.171 11.35,-21.589 2.55,-8.422 3.84,-17.93 3.84,-28.551 V 2.92969 h -17.39 V 119.301 c 0,17.078 -3.9,30.469 -11.71,40.168 -7.8,9.703 -19.75,14.551 -35.86,14.551 -11.96,0 -23.05,-3.09 -33.31,-9.239 -10.24,-6.16 -19.39,-14.609 -27.44,-25.351 V 2.92969 h -17.38" /><path
         id="path78"
         style="fill:#2b55ab;fill-opacity:1;fill-rule:nonzero;stroke:none"
         d="m 2538.16,261.219 c 0.98,-0.43 2.02,-1.379 3.12,-2.84 L 2708.9,34.0313 c -0.37,3.6601 -0.56,7.1992 -0.56,10.6171 V 261.852 h 16.47 V 2.92969 h -8.96 c -2.81,0 -5.07,1.21875 -6.78,3.66015 L 2540.72,231.301 c 0.37,-3.672 0.56,-7.141 0.56,-10.43 V 2.92969 h -16.29 V 261.852 h 9.15 c 1.71,0 3.05,-0.211 4.02,-0.633" /><path
         id="path80"
         style="fill:#2b55ab;fill-opacity:1;fill-rule:nonzero;stroke:none"
         d="m 2902.39,174.941 c -9.38,0 -17.79,-1.472 -25.21,-4.402 -7.43,-2.93 -13.86,-7.129 -19.28,-12.617 -5.42,-5.492 -9.8,-12.082 -13.15,-19.774 -3.35,-7.679 -5.58,-16.277 -6.67,-25.796 h 119.85 c 0,9.769 -1.34,18.519 -4.01,26.257 -2.69,7.743 -6.46,14.313 -11.33,19.672 -4.88,5.367 -10.72,9.489 -17.55,12.348 -6.82,2.871 -14.37,4.312 -22.65,4.312 z m -0.27,12.989 c 10.25,0 19.74,-1.77 28.46,-5.309 8.72,-3.543 16.29,-8.691 22.68,-15.461 6.41,-6.769 11.41,-15.101 15.01,-24.98 3.6,-9.879 5.4,-21.231 5.4,-34.039 0,-2.68 -0.4,-4.512 -1.19,-5.493 -0.79,-0.968 -2.04,-1.457 -3.75,-1.457 h -131.39 v -3.4801 c 0,-13.6601 1.59,-25.6796 4.76,-36.039 3.17,-10.3711 7.69,-19.0703 13.54,-26.0821 5.85,-7.0195 12.93,-12.289 21.23,-15.8281 8.3,-3.5429 17.56,-5.3125 27.82,-5.3125 9.14,0 17.07,1.0196 23.78,3.0313 6.71,2.0078 12.35,4.2695 16.93,6.7695 4.57,2.5 8.2,4.75 10.89,6.7617 2.67,2.0078 4.63,3.0196 5.85,3.0196 1.58,0 2.8,-0.6094 3.66,-1.8321 l 4.76,-5.8594 c -2.93,-3.6484 -6.8,-7.0703 -11.62,-10.2382 -4.82,-3.1719 -10.19,-5.8907 -16.11,-8.14066 -5.92,-2.26172 -12.25,-4.0625 -19.02,-5.39063 -6.78,-1.35156 -13.58,-2.031247 -20.41,-2.031247 -12.44,0 -23.79,2.171877 -34.03,6.511717 -10.25,4.32032 -19.05,10.62892 -26.38,18.92972 -7.35,8.289 -13.01,18.4492 -17.02,30.4687 -4.01,12.0117 -6.01,25.7696 -6.01,41.2617 0,13.0591 1.86,25.0981 5.58,36.1411 3.72,11.039 9.09,20.558 16.1,28.546 7.02,7.993 15.62,14.243 25.8,18.762 10.19,4.512 21.75,6.77 34.68,6.77" /><path
         id="path82"
         style="fill:#2b55ab;fill-opacity:1;fill-rule:nonzero;stroke:none"
         d="m 3110.72,0 c -12.31,0 -21.89,3.42188 -28.72,10.25 -6.83,6.832 -10.25,17.3789 -10.25,31.6484 V 166.34 h -26.16 c -1.35,0 -2.45,0.359 -3.3,1.09 -0.85,0.73 -1.28,1.769 -1.28,3.109 v 6.77 l 31.11,2.203 4.34,65.148 c 0.12,1.09 0.57,2.07 1.36,2.93 0.78,0.84 1.84,1.269 3.17,1.269 h 8.14 V 179.32 h 57.28 v -12.98 h -57.28 V 42.8203 c 0,-5.0117 0.65,-9.3086 1.92,-12.8984 1.28,-3.6016 3.05,-6.5625 5.32,-8.8828 2.25,-2.3086 4.9,-4.0196 7.96,-5.1172 3.04,-1.1016 6.33,-1.6524 9.88,-1.6524 4.38,0 8.16,0.6407 11.34,1.9219 3.17,1.2891 5.91,2.6797 8.23,4.207 2.32,1.5313 4.21,2.9336 5.67,4.211 1.47,1.289 2.63,1.9219 3.48,1.9219 0.98,0 1.95,-0.6094 2.93,-1.8321 l 4.76,-7.6797 C 3145.98,11.8906 3140.1,7.78125 3132.96,4.67188 3125.82,1.55078 3118.41,0 3110.72,0" /><path
         id="path84"
         style="fill:#2b55ab;fill-opacity:1;fill-rule:nonzero;stroke:none"
         d="m 3206.6,185 h 13.36 c 1.71,0 3.12,-0.461 4.21,-1.371 1.09,-0.918 1.83,-1.918 2.2,-3.027 l 45.92,-143.6411 c 0.85,-2.8007 1.53,-5.4921 2.02,-8.0507 0.48,-2.5704 0.97,-5.1211 1.46,-7.6797 0.62,2.5586 1.28,5.1093 2.01,7.6797 0.74,2.5586 1.59,5.25 2.57,8.0507 l 48.86,144.9301 c 0.85,2.679 2.56,4.031 5.12,4.031 h 7.13 c 2.69,0 4.46,-1.352 5.31,-4.031 L 3394.9,36.9609 c 1.83,-5.4921 3.29,-10.789 4.39,-15.9218 0.49,2.5625 1,5.1601 1.55,7.7812 0.56,2.6211 1.32,5.3399 2.29,8.1406 l 46.12,143.6411 c 0.96,2.929 3.04,4.398 6.22,4.398 h 12.8 L 3407.34,2.92969 h -12.81 c -1.95,0 -3.36,1.28125 -4.21,3.83203 L 3340.37,154.629 c -0.61,1.82 -1.16,3.652 -1.65,5.48 -0.49,1.832 -0.92,3.672 -1.28,5.493 -0.37,-1.821 -0.76,-3.661 -1.19,-5.493 -0.43,-1.828 -0.95,-3.66 -1.55,-5.48 L 3284.19,6.76172 c -0.73,-2.55078 -2.2,-3.83203 -4.4,-3.83203 h -12.25 L 3206.6,185" /><path
         id="path86"
         style="fill:#2b55ab;fill-opacity:1;fill-rule:nonzero;stroke:none"
         d="m 3611.92,14.2695 c 10.86,0 20.35,1.8594 28.46,5.5821 8.12,3.7187 14.88,9.0586 20.31,16.0195 5.43,6.9492 9.49,15.3398 12.17,25.1484 2.69,9.8321 4.02,20.8321 4.02,33.0313 0,12.0782 -1.33,23.0582 -4.02,32.9372 -2.68,9.883 -6.74,18.332 -12.17,25.344 -5.43,7.02 -12.19,12.406 -20.31,16.199 -8.11,3.778 -17.6,5.68 -28.46,5.68 -10.86,0 -20.34,-1.902 -28.45,-5.68 -8.11,-3.793 -14.89,-9.179 -20.31,-16.199 -5.43,-7.012 -9.52,-15.461 -12.26,-25.344 -2.75,-9.879 -4.11,-20.859 -4.11,-32.9372 0,-12.1992 1.36,-23.1992 4.11,-33.0313 2.74,-9.8086 6.83,-18.1992 12.26,-25.1484 5.42,-6.9609 12.2,-12.3008 20.31,-16.0195 8.11,-3.7227 17.59,-5.5821 28.45,-5.5821 z m 0,173.6605 c 13.06,0 24.74,-2.231 35.04,-6.68 10.32,-4.461 19.01,-10.77 26.09,-18.941 7.07,-8.168 12.47,-18.028 16.19,-29.547 3.72,-11.532 5.57,-24.434 5.57,-38.7112 0,-14.2695 -1.85,-27.1406 -5.57,-38.6016 -3.72,-11.4804 -9.12,-21.289 -16.19,-29.4687 -7.08,-8.1719 -15.77,-14.4492 -26.09,-18.83987 -10.3,-4.40235 -21.98,-6.601567 -35.04,-6.601567 -13.05,0 -24.73,2.199217 -35.04,6.601567 -10.31,4.39067 -19.03,10.66797 -26.17,18.83987 -7.13,8.1797 -12.56,17.9883 -16.28,29.4687 -3.72,11.461 -5.58,24.3321 -5.58,38.6016 0,14.2772 1.86,27.1792 5.58,38.7112 3.72,11.519 9.15,21.379 16.28,29.547 7.14,8.171 15.86,14.48 26.17,18.941 10.31,4.449 21.99,6.68 35.04,6.68" /><path
         id="path88"
         style="fill:#2b55ab;fill-opacity:1;fill-rule:nonzero;stroke:none"
         d="M 3781.18,2.92969 V 185 h 9.14 c 2.08,0 3.58,-0.43 4.49,-1.281 0.91,-0.86 1.43,-2.321 1.56,-4.399 l 1.46,-38.422 c 5.85,14.762 13.66,26.313 23.42,34.672 9.76,8.36 21.78,12.539 36.04,12.539 5.5,0 10.56,-0.578 15.2,-1.738 4.63,-1.16 9.02,-2.84 13.17,-5.031 l -2.38,-12.078 c -0.36,-1.953 -1.58,-2.922 -3.65,-2.922 -0.73,0 -1.78,0.238 -3.12,0.73 -1.34,0.489 -3.01,1.032 -5.03,1.649 -2.01,0.601 -4.48,1.152 -7.41,1.64 -2.93,0.493 -6.29,0.731 -10.07,0.731 -13.79,0 -25.09,-4.27 -33.94,-12.809 -8.85,-8.543 -16.01,-20.859 -21.5,-36.961 V 2.92969 h -17.38" /><path
         id="path90"
         style="fill:#2b55ab;fill-opacity:1;fill-rule:nonzero;stroke:none"
         d="M 3986.31,269.18 V 106.859 h 8.42 c 1.71,0 3.32,0.25 4.85,0.731 1.52,0.492 3.19,1.66 5.03,3.48 l 73.01,69.36 c 1.34,1.332 2.71,2.429 4.12,3.289 1.39,0.851 3.2,1.281 5.4,1.281 h 15.37 l -80.33,-76.309 c -1.22,-1.222 -2.39,-2.351 -3.48,-3.382 -1.1,-1.039 -2.32,-1.918 -3.66,-2.661 1.95,-0.968 3.59,-2.136 4.94,-3.4683 1.34,-1.3399 2.74,-2.8086 4.21,-4.3984 l 84.35,-91.85161 h -15.18 c -1.71,0 -3.23,0.33203 -4.58,1 -1.34,0.67969 -2.69,1.74219 -4.02,3.21094 l -76.49,81.98047 c -2.08,2.1875 -3.97,3.6797 -5.67,4.4805 -1.71,0.789 -4.4,1.1797 -8.06,1.1797 h -8.23 V 2.92969 h -17.38 V 269.18 h 17.38" /><path
         id="path92"
         style="fill:#50aae3;fill-opacity:1;fill-rule:nonzero;stroke:none"
         d="M 4118.44,825.539 H 15.8242 v 36.922 H 4118.44 v -36.922" /><path
         id="path94"
         style="fill:#2b55ab;fill-opacity:1;fill-rule:nonzero;stroke:none"
         d="m 2194.34,1535.82 c 0,-58.13 9.51,-114.01 28.56,-167.61 19.03,-53.62 46.09,-101.24 81.17,-142.81 35.07,-41.6 76.67,-74.67 124.78,-99.22 48.1,-24.56 101.7,-36.82 160.84,-36.82 60.13,0 114.75,13.01 163.86,39.08 49.09,26.05 90.69,60.13 124.77,102.22 34.06,42.09 60.37,89.68 78.92,142.81 18.53,53.11 27.81,107.23 27.81,162.35 0,58.11 -9.77,113.99 -29.31,167.62 -19.54,53.6 -46.86,100.95 -81.92,142.05 -35.1,41.09 -76.68,73.9 -124.77,98.47 -48.11,24.54 -101.24,36.83 -159.36,36.83 -60.12,0 -114.75,-12.78 -163.85,-38.34 -49.12,-25.55 -90.71,-59.37 -124.77,-101.46 -34.08,-42.1 -60.39,-89.71 -78.92,-142.81 -18.56,-53.14 -27.81,-107.25 -27.81,-162.36 z m 395.35,-541.172 c -74.16,0 -142.05,15.272 -203.69,45.852 -61.63,30.56 -114.5,71.14 -158.59,121.76 -44.11,50.6 -78.17,108.47 -102.23,173.63 -24.04,65.13 -36.07,131.77 -36.07,199.93 0,71.15 12.78,139.29 38.33,204.45 25.56,65.13 60.89,122.75 105.98,172.87 45.1,50.11 98.21,89.94 159.35,119.51 61.12,29.55 127.26,44.35 198.43,44.35 74.15,0 142.06,-15.79 203.7,-47.36 61.62,-31.57 114.24,-72.9 157.84,-124.01 43.59,-51.12 77.41,-108.99 101.47,-173.63 24.05,-64.64 36.07,-130.55 36.07,-197.68 0,-71.17 -12.78,-139.31 -38.33,-204.44 -25.55,-65.16 -60.65,-122.52 -105.23,-172.13 -44.61,-49.61 -97.48,-89.21 -158.59,-118.76 -61.14,-29.57 -127.28,-44.342 -198.44,-44.342" /></g></g></svg>